<?xml version="1.0" encoding="UTF-8"?>
<svg width="237px" height="237px" viewBox="0 0 237 237" version="1.1" xmlns="http://www.w3.org/2000/svg" xmlns:xlink="http://www.w3.org/1999/xlink">
    <title>Artboard Copy 3</title>
    <g id="Artboard-Copy-3" stroke="none" stroke-width="1" fill="none" fill-rule="evenodd">
        <g id="Group">
            <path d="M54.2333333,35.1583333 C73.3125,44.5305556 77.6638889,97.0819444 123.855556,120.847222 C126.868056,118.169444 129.880556,115.491667 133.227778,112.813889 C205.8625,49.8861111 232.305556,88.0444444 232.305556,88.0444444 L232.640278,88.0444444 C219.586111,39.5097222 176.072222,2.35555556 122.516667,0.347222222 C74.9861111,-1.32638889 32.8111111,25.1166667 12.7277778,64.9486111 C25.1125,43.5263889 39.5055556,28.1291667 54.2333333,35.1583333 Z" id="Path"></path>
            <path d="M113.813889,209.883333 C91.7222222,200.845833 79.6722222,181.766667 69.2958333,164.026389 C47.8736111,178.419444 37.4972222,179.423611 24.4430556,178.419444 C21.4305556,178.084722 18.0833333,177.080556 14.4013889,175.406944 C33.8152778,210.552778 70.6347222,234.9875 113.479167,236.661111 C135.905556,237.330556 156.993056,231.975 175.068056,221.933333 C157.6625,223.941667 138.918056,220.259722 113.813889,209.883333 Z" id="Path" fill="#E94190" fill-rule="nonzero"></path>
            <path d="M69.2958333,164.026389 C57.5805556,143.608333 47.8736111,124.529167 27.4555556,123.525 C14.7361111,123.190278 6.70277778,130.554167 2.01666667,139.926389 C4.35972222,152.311111 8.71111111,164.361111 14.7361111,175.072222 C18.4180556,176.745833 21.7652778,178.084722 24.7777778,178.084722 C37.4972222,179.423611 47.8736111,178.419444 69.2958333,164.026389 Z" id="Path" fill="#EC64A1" fill-rule="nonzero"></path>
            <path d="M159.001389,131.893056 C144.943056,129.884722 133.5625,126.202778 123.855556,121.181944 C99.4208333,141.934722 82.35,155.323611 69.2958333,164.026389 C79.6722222,181.766667 91.3875,200.845833 113.813889,209.883333 C138.918056,219.925 157.6625,223.941667 175.402778,221.598611 C210.213889,202.184722 234.648611,165.365278 236.322222,122.520833 C236.656944,111.140278 235.652778,99.7597222 232.975,89.3833333 L232.305556,88.0444444 C232.305556,88.3791667 239.334722,142.604167 159.001389,131.893056 Z" id="Path" fill="#A96BAA" fill-rule="nonzero"></path>
            <path d="M232.305556,88.3791667 C232.305556,88.3791667 205.8625,50.2208333 133.227778,113.148611 C129.880556,115.826389 126.868056,118.504167 123.855556,121.181944 C133.5625,126.202778 144.943056,129.884722 159.001389,131.893056 C239.334722,142.604167 232.305556,88.3791667 232.305556,88.3791667 Z" id="Path" fill="#CB2A87" fill-rule="nonzero"></path>
            <path d="M27.7902778,123.525 C48.2083333,124.194444 57.9152778,143.273611 69.6305556,164.026389 C82.6847222,155.323611 99.7555556,141.934722 124.190278,121.181944 C77.9986111,97.0819444 73.6472222,44.5305556 54.5680556,35.4930556 C39.8402778,28.4638889 25.4472222,43.5263889 13.3972222,65.2833333 C6.03333333,80.0111111 1.34722222,96.7472222 0.677777778,114.152778 C0.343055556,123.190278 1.0125,131.893056 2.68611111,140.261111 C7.0375,130.888889 14.7361111,123.190278 27.7902778,123.525 Z" id="Path" fill="#00AEEA" fill-rule="nonzero"></path>
        </g>
    </g>
</svg>